<svg xmlns="http://www.w3.org/2000/svg" width="32" height="32" viewBox="0 0 24 24">
  <path d="M3.172 3.464C2 4.93 2 7.286 2 12c0 4.714 0 7.071 1.172 8.535C4.343 22 6.229 22 10 22h3.376A4.25 4.25 0 0 1 17 16.007V12.25a2.25 2.25 0 0 1 4.5 0 .75.75 0 0 0 .5.707V12c0-4.714 0-7.071-1.172-8.536C19.657 2 17.771 2 14 2h-4C6.229 2 4.343 2 3.172 3.464" opacity=".5"/>
  <path fill-rule="evenodd" d="M8.25 12a3.75 3.75 0 1 1 7.5 0 3.75 3.75 0 0 1-7.5 0m11-.5a.75.75 0 0 1 .75.75 2.25 2.25 0 0 0 2.25 2.25.75.75 0 0 1 0 1.5 3.734 3.734 0 0 1-2.25-.75v5a2.75 2.75 0 1 1-1.5-2.45v-5.55a.75.75 0 0 1 .75-.75m-.75 8.75a1.25 1.25 0 1 0-2.5 0 1.25 1.25 0 0 0 2.5 0" clip-rule="evenodd"/>
</svg>
